<svg version="1.1" id="Layer_1" xmlns="http://www.w3.org/2000/svg" xmlns:xlink="http://www.w3.org/1999/xlink" x="0px" y="0px"
	 width="100%" viewBox="0 0 117 111" enable-background="new 0 0 117 111" xml:space="preserve">
<path fill="#FCFDFE" opacity="1.000000" stroke="none" 
	d="
M66.000000,112.000000 
	C44.000000,112.000000 22.500000,112.000000 1.000000,112.000000 
	C1.000000,75.000000 1.000000,38.000000 1.000000,1.000000 
	C40.000000,1.000000 79.000000,1.000000 118.000000,1.000000 
	C118.000000,38.000000 118.000000,75.000000 118.000000,112.000000 
	C100.833336,112.000000 83.666664,112.000000 66.000000,112.000000 
M40.417793,40.791283 
	C39.246414,41.288864 38.075039,41.786446 36.903660,42.284031 
	C37.311832,42.858772 37.720001,43.433510 38.128174,44.008251 
	C39.082684,43.003632 40.037193,41.999008 41.418976,40.759151 
	C41.402557,40.401791 41.386143,40.044434 41.369724,39.687073 
	C41.249428,40.127728 41.129135,40.568378 40.417793,40.791283 
M41.431656,22.162964 
	C40.926468,22.736124 40.421280,23.309284 39.439476,24.392748 
	C37.167961,27.513947 36.119114,30.662020 38.718243,34.107883 
	C38.475540,34.377785 38.232838,34.647686 37.380478,34.622677 
	C35.772259,33.522308 34.164040,32.421944 32.555817,31.321579 
	C32.328632,33.258011 32.030708,35.189545 31.896343,37.132397 
	C31.786133,38.725975 32.552662,41.077457 31.754141,41.809189 
	C27.616516,45.600723 31.886217,47.096294 33.444794,49.422253 
	C34.165615,47.162487 34.125103,44.980614 34.175552,42.800846 
	C34.243340,39.871902 32.707603,35.993595 38.885014,35.997505 
	C40.876045,35.789654 42.867077,35.581802 44.413486,35.922634 
	C41.585289,40.873489 47.619801,39.724133 48.300961,42.554417 
	C48.211182,42.736275 48.121407,42.918137 47.294205,43.202122 
	C44.488258,44.637413 41.682316,46.072704 38.345398,47.994270 
	C36.772175,54.155640 39.094608,56.594536 45.218418,55.262978 
	C46.477333,54.989235 47.776413,54.900188 49.684757,55.000553 
	C51.476536,56.318249 53.268314,57.635948 55.080486,59.797615 
	C54.350224,62.781071 53.619961,65.764526 52.272678,69.047073 
	C48.497131,72.022926 44.721581,74.998779 40.304504,78.164368 
	C38.547871,79.512032 36.791241,80.859688 34.395084,82.381851 
	C31.138155,85.284698 27.881227,88.187553 24.624298,91.090401 
	C24.950172,91.463715 25.276049,91.837036 25.601923,92.210358 
	C29.704754,92.210358 33.807583,92.210358 38.309109,92.785759 
	C41.177670,94.196373 44.046234,95.606987 46.942490,97.036110 
	C46.942490,97.036110 46.976460,97.035675 47.296642,97.638000 
	C53.508030,101.556709 59.851894,105.069756 67.624161,103.283577 
	C71.420525,102.411110 72.080505,101.322281 71.420746,97.243202 
	C71.796288,94.172035 72.171822,91.100861 72.992264,87.724876 
	C73.274391,87.287491 73.556519,86.850098 74.431587,86.387642 
	C75.356392,85.723312 76.281197,85.058983 77.788704,84.881821 
	C79.318848,85.278114 80.829361,85.792923 82.382538,86.050102 
	C88.931007,87.134392 91.465393,84.816711 90.369423,78.096970 
	C90.713806,75.745163 91.058197,73.393364 91.620674,70.402130 
	C92.019371,68.931366 92.418068,67.460594 92.979584,65.349419 
	C93.324127,64.547066 93.668671,63.744709 94.712822,62.849182 
	C102.217690,59.604389 102.546944,57.764004 96.599586,52.216057 
	C96.124756,51.773113 95.582390,51.402554 95.080208,50.187004 
	C94.528076,47.788673 93.975945,45.390343 93.763359,42.221050 
	C93.596817,40.130692 93.430267,38.040337 93.212608,35.310123 
	C91.483582,32.167667 89.754555,29.025208 87.992508,25.559771 
	C87.992508,25.559771 87.847908,25.269089 87.836411,24.545906 
	C86.932808,23.823936 86.029213,23.101967 85.069893,21.725960 
	C81.379730,19.476713 77.689560,17.227468 73.217407,14.899272 
	C70.495331,14.452977 67.773254,14.006682 64.257263,13.300081 
	C60.851910,13.936184 57.446556,14.572286 53.322269,15.165691 
	C49.783401,17.380363 46.244534,19.595036 42.340343,21.863659 
	C42.340343,21.863659 42.000473,22.008083 41.431656,22.162964 
M44.946434,65.855103 
	C45.930023,65.878975 47.197872,66.302834 47.840122,65.846405 
	C49.341694,64.779251 50.543030,63.289642 51.865944,61.971107 
	C50.555759,60.989143 49.225597,59.190540 47.940208,59.221996 
	C46.138504,59.266079 43.515751,59.962151 44.920586,63.229191 
	C45.201820,63.883213 44.443527,64.984222 43.433891,66.013802 
	C42.211918,67.238831 40.989941,68.463852 39.767967,69.688873 
	C40.449104,70.140198 41.130241,70.591522 41.811378,71.042839 
	C42.580250,69.307076 43.349121,67.571312 44.946434,65.855103 
M34.265427,58.951904 
	C35.080036,59.110229 35.894642,59.268559 36.709251,59.426884 
	C36.920185,59.100903 37.131115,58.774921 37.342049,58.448940 
	C35.280624,56.768326 33.219200,55.087711 31.345634,53.560253 
	C29.829247,54.291996 28.181969,55.197666 26.448730,55.887283 
	C25.127230,56.413071 23.696737,56.664921 22.556944,56.973145 
	C26.883905,59.003590 30.496542,60.698837 34.039803,62.361530 
	C34.039803,61.815948 34.039803,60.658276 34.265427,58.951904 
M34.874878,70.820885 
	C32.474564,74.326553 32.474564,74.326553 37.797646,76.762657 
	C36.637844,73.967476 35.861629,72.096771 34.874878,70.820885 
M39.495335,58.698639 
	C39.119057,59.129097 38.731674,59.551468 38.396381,60.011784 
	C38.377892,60.037167 38.791985,60.377651 39.004730,60.571465 
	C39.285381,60.087772 39.566032,59.604080 39.495335,58.698639 
M42.897877,60.647713 
	C42.538296,60.402733 42.178719,60.157749 41.819138,59.912766 
	C41.666996,60.310650 41.514851,60.708530 41.362709,61.106415 
	C41.824478,61.134697 42.286243,61.162979 42.897877,60.647713 
M34.244205,66.175255 
	C34.411652,66.119690 34.579098,66.064125 34.746544,66.008553 
	C34.578110,65.954422 34.409676,65.900284 34.244205,66.175255 
M35.518433,42.402294 
	C35.518433,42.402294 35.595741,42.528851 35.518433,42.402294 
z"/>
<path fill="#1E91E2" opacity="1.000000" stroke="none" 
	d="
M93.263718,35.949978 
	C93.430267,38.040337 93.596817,40.130692 93.201645,42.610878 
	C89.102234,43.663387 85.564545,44.326073 81.876465,44.677689 
	C79.509644,41.554398 77.293198,38.742176 74.894516,35.644932 
	C68.692123,28.552876 61.153461,28.143005 53.012207,29.818123 
	C50.916008,26.003794 54.010395,23.712173 54.874092,20.933392 
	C54.897987,20.937782 54.928581,20.974857 55.329315,20.987587 
	C59.770332,20.677177 63.810619,20.354034 68.050224,20.282730 
	C68.845955,20.684685 69.442375,20.834805 70.018295,20.990261 
	C69.997795,20.995598 70.009293,20.954922 69.981171,21.320122 
	C71.711937,25.761251 75.280510,26.630417 79.199715,27.025480 
	C81.789986,27.286587 84.356384,27.784555 87.111618,28.450958 
	C89.281090,31.133617 91.272408,33.541798 93.263718,35.949978 
z"/>
<path fill="#0C17A2" opacity="1.000000" stroke="none" 
	d="
M72.547363,88.029694 
	C72.171822,91.100861 71.796288,94.172035 70.933411,97.636719 
	C69.225456,98.542725 68.032471,99.138664 66.779518,99.553490 
	C60.853706,101.515404 57.063156,98.762520 56.996738,92.488647 
	C56.984436,91.326614 56.997555,90.164314 57.254795,88.717041 
	C62.522884,88.297867 67.535118,88.163780 72.547363,88.029694 
z"/>
<path fill="#32AAF4" opacity="1.000000" stroke="none" 
	d="
M38.876373,47.507996 
	C41.682316,46.072704 44.488258,44.637413 47.922691,43.396912 
	C50.673016,44.084278 52.794853,44.576851 55.099266,45.351662 
	C57.522678,48.091694 59.763508,50.549488 61.654373,53.007126 
	C60.203999,53.326706 59.103596,53.646450 57.663036,53.814758 
	C52.620975,52.806423 47.859062,52.178482 43.249226,50.970280 
	C41.602261,50.538628 40.323303,48.702866 38.876373,47.507996 
z"/>
<path fill="#113BBA" opacity="1.000000" stroke="none" 
	d="
M90.328438,78.876083 
	C91.465393,84.816711 88.931007,87.134392 82.382538,86.050102 
	C80.829361,85.792923 79.318848,85.278114 77.346466,84.344025 
	C76.576088,83.520012 76.247948,83.233780 75.914993,82.615082 
	C74.309692,80.475945 72.709206,78.669281 71.042862,76.533783 
	C70.323364,74.789169 69.669724,73.373390 69.014923,71.588425 
	C69.009491,70.479897 69.005203,69.740562 69.251114,69.000107 
	C69.668106,68.998260 69.834900,68.997528 70.200012,69.270309 
	C72.312813,71.259689 74.968193,72.626472 75.977615,74.768799 
	C77.730362,78.488724 80.323517,79.279572 83.898643,79.019562 
	C86.034096,78.864250 88.184662,78.916908 90.328438,78.876083 
z"/>
<path fill="#2E80DB" opacity="1.000000" stroke="none" 
	d="
M54.850197,20.929001 
	C54.010395,23.712173 50.916008,26.003794 52.881889,30.033371 
	C52.478600,30.809700 52.191509,30.976662 51.547009,31.202168 
	C47.203220,32.140987 43.216843,33.021263 39.230465,33.901539 
	C36.119114,30.662020 37.167961,27.513947 40.021301,24.154181 
	C41.059643,23.894810 41.516159,23.874006 42.380180,23.886520 
	C45.804192,23.259050 48.820694,22.598261 51.881737,21.924114 
	C51.926273,21.910759 51.971291,21.829390 52.280952,21.837971 
	C53.343807,21.540701 54.097004,21.234852 54.850197,20.929001 
z"/>
<path fill="#1E80DC" opacity="1.000000" stroke="none" 
	d="
M95.071411,50.998360 
	C95.582390,51.402554 96.124756,51.773113 96.599586,52.216057 
	C102.546944,57.764004 102.217690,59.604389 94.109802,62.633598 
	C86.859764,62.110588 85.121933,57.348610 84.471275,51.991951 
	C88.290031,51.663010 91.680725,51.330685 95.071411,50.998360 
z"/>
<path fill="#101FB0" opacity="1.000000" stroke="none" 
	d="
M56.998940,89.002136 
	C56.997555,90.164314 56.984436,91.326614 56.996738,92.488647 
	C57.063156,98.762520 60.853706,101.515404 66.779518,99.553490 
	C68.032471,99.138664 69.225456,98.542725 70.842438,97.975098 
	C72.080505,101.322281 71.420525,102.411110 67.624161,103.283577 
	C59.851894,105.069756 53.508030,101.556709 47.499542,97.311295 
	C49.154007,95.788506 50.626450,94.616692 52.051697,93.390038 
	C53.722218,91.952316 55.351673,90.466881 56.998940,89.002136 
z"/>
<path fill="#1648BF" opacity="1.000000" stroke="none" 
	d="
M90.348930,78.486526 
	C88.184662,78.916908 86.034096,78.864250 83.898643,79.019562 
	C80.323517,79.279572 77.730362,78.488724 75.977615,74.768799 
	C74.968193,72.626472 72.312813,71.259689 70.435852,69.013748 
	C72.980652,68.657051 75.487907,68.830429 78.191650,69.345490 
	C82.726280,70.138634 87.064430,70.590096 91.402588,71.041557 
	C91.058197,73.393364 90.713806,75.745163 90.348930,78.486526 
z"/>
<path fill="#1655C2" opacity="1.000000" stroke="none" 
	d="
M84.043205,51.988571 
	C85.121933,57.348610 86.859764,62.110588 93.759995,62.680183 
	C93.668671,63.744709 93.324127,64.547066 92.489120,65.670914 
	C87.438332,66.296227 83.564217,65.086990 80.996048,60.746292 
	C81.002144,60.320621 81.006630,60.150402 81.311401,59.736130 
	C81.466110,57.399075 81.712448,55.183067 81.101410,53.236137 
	C79.273209,47.410912 77.109489,41.690987 75.076759,35.929955 
	C77.293198,38.742176 79.509644,41.554398 82.002502,45.024368 
	C82.867004,47.784264 83.455109,49.886417 84.043205,51.988571 
z"/>
<path fill="#1A83DC" opacity="1.000000" stroke="none" 
	d="
M54.916687,45.069424 
	C52.794853,44.576851 50.673016,44.084278 48.291405,43.345848 
	C48.121407,42.918137 48.211182,42.736275 48.597862,42.278332 
	C48.894760,42.002247 49.150024,41.899082 49.319973,41.832615 
	C49.704899,41.623459 49.834435,41.424961 49.917549,41.081375 
	C49.956570,40.992092 49.933941,40.798531 50.215950,40.546421 
	C51.393726,38.541328 52.289497,36.788345 53.546764,34.974937 
	C65.670494,30.580027 71.036598,32.891495 74.655212,43.966530 
	C72.419205,42.346455 70.646179,40.589424 68.617851,39.206982 
	C62.908958,35.315987 57.898144,34.285038 55.964218,41.352669 
	C55.588818,42.824379 55.252754,43.946899 54.916687,45.069424 
z"/>
<path fill="#102BAC" opacity="1.000000" stroke="none" 
	d="
M75.919807,82.947556 
	C76.247948,83.233780 76.576088,83.520012 77.055115,84.100449 
	C76.281197,85.058983 75.356392,85.723312 73.787231,86.223160 
	C72.097839,85.467133 71.052803,84.875595 69.859108,83.958199 
	C67.139511,80.753288 64.568573,77.874245 61.951279,74.621086 
	C59.623318,69.149200 57.341705,64.051422 55.060093,58.953644 
	C53.268314,57.635948 51.476536,56.318249 49.668144,54.635025 
	C52.409897,54.545948 55.168266,54.822399 58.232025,55.288773 
	C60.269981,60.695919 62.002548,65.913139 63.805588,71.487076 
	C65.274529,74.217941 66.672989,76.592079 68.213562,79.278717 
	C70.877052,80.709991 73.398430,81.828773 75.919807,82.947556 
z"/>
<path fill="#1A5FCB" opacity="1.000000" stroke="none" 
	d="
M80.994446,61.001736 
	C83.564217,65.086990 87.438332,66.296227 92.407715,65.991119 
	C92.418068,67.460594 92.019371,68.931366 91.511627,70.721848 
	C87.064430,70.590096 82.726280,70.138634 78.037766,68.984924 
	C77.459175,66.188606 77.230949,64.094528 77.352493,61.997772 
	C78.799660,61.663967 79.897057,61.332851 80.994446,61.001736 
z"/>
<path fill="#0A0492" opacity="1.000000" stroke="none" 
	d="
M70.007759,84.284058 
	C71.052803,84.875595 72.097839,85.467133 73.490761,86.235695 
	C73.556519,86.850098 73.274391,87.287491 72.769806,87.877289 
	C67.535118,88.163780 62.522884,88.297867 57.254795,88.717041 
	C55.351673,90.466881 53.722218,91.952316 52.051697,93.390038 
	C50.626450,94.616692 49.154007,95.788506 47.339451,97.010132 
	C46.976460,97.035675 46.942490,97.036110 46.959881,96.659180 
	C47.326576,94.860130 47.675884,93.438004 48.290810,91.820282 
	C50.736095,89.442131 52.915760,87.259575 55.509300,85.038940 
	C60.618038,84.761917 65.312897,84.522987 70.007759,84.284058 
z"/>
<path fill="#1D89E0" opacity="1.000000" stroke="none" 
	d="
M84.471275,51.991951 
	C83.455109,49.886417 82.867004,47.784264 82.152878,45.335434 
	C85.564545,44.326073 89.102234,43.663387 93.031876,42.996361 
	C93.975945,45.390343 94.528076,47.788673 95.075806,50.592682 
	C91.680725,51.330685 88.290031,51.663010 84.471275,51.991951 
z"/>
<path fill="#1D67D3" opacity="1.000000" stroke="none" 
	d="
M55.070290,59.375629 
	C57.341705,64.051422 59.623318,69.149200 61.730698,74.884888 
	C58.697826,74.672256 55.839195,73.821716 52.983719,72.548950 
	C52.954483,71.000473 52.922092,69.874222 52.889694,68.747978 
	C53.619961,65.764526 54.350224,62.781071 55.070290,59.375629 
z"/>
<path fill="#2E41C6" opacity="1.000000" stroke="none" 
	d="
M37.910416,92.210358 
	C33.807583,92.210358 29.704754,92.210358 25.601923,92.210358 
	C25.276049,91.837036 24.950172,91.463715 24.624298,91.090401 
	C27.881227,88.187553 31.138155,85.284698 34.743870,82.620529 
	C35.728920,84.220085 36.365185,85.580971 36.825500,87.214737 
	C32.885334,90.179031 39.415672,90.122040 37.910416,92.210358 
z"/>
<path fill="#2B52CC" opacity="1.000000" stroke="none" 
	d="
M37.001450,86.941849 
	C36.365185,85.580971 35.728920,84.220085 35.063633,82.533279 
	C36.791241,80.859688 38.547871,79.512032 40.983376,78.087318 
	C43.433346,78.999237 45.204437,79.988213 46.979214,81.228340 
	C46.982403,81.646950 46.981907,81.814407 46.684139,82.133591 
	C44.238045,83.837135 42.089218,85.388969 39.572948,86.945557 
	C38.470821,86.947487 37.736134,86.944672 37.001450,86.941849 
z"/>
<path fill="#257AD9" opacity="1.000000" stroke="none" 
	d="
M57.926632,55.098850 
	C55.168266,54.822399 52.409897,54.545948 49.354256,54.497757 
	C47.776413,54.900188 46.477333,54.989235 45.218418,55.262978 
	C39.094608,56.594536 36.772175,54.155640 38.610886,47.751133 
	C40.323303,48.702866 41.602261,50.538628 43.249226,50.970280 
	C47.859062,52.178482 52.620975,52.806423 57.656143,54.098953 
	C57.968483,54.722675 57.947556,54.910763 57.926632,55.098850 
z"/>
<path fill="#53BAED" opacity="1.000000" stroke="none" 
	d="
M73.999405,14.978224 
	C77.689560,17.227468 81.379730,19.476713 85.058731,22.460022 
	C85.030960,23.465189 85.014343,23.736298 84.706360,24.063461 
	C84.238991,24.209759 84.062973,24.300003 83.492493,24.289280 
	C81.754555,24.007620 80.411079,23.826927 78.957932,23.321058 
	C77.775078,22.753717 76.701874,22.511551 75.375214,22.247368 
	C74.703865,21.958910 74.285988,21.692467 73.907364,20.954739 
	C73.964203,18.648376 73.981804,16.813301 73.999405,14.978224 
z"/>
<path fill="#DFE9F7" opacity="1.000000" stroke="none" 
	d="
M38.017498,36.021252 
	C32.707603,35.993595 34.243340,39.871902 34.175552,42.800846 
	C34.125103,44.980614 34.165615,47.162487 33.444794,49.422253 
	C31.886217,47.096294 27.616516,45.600723 31.754141,41.809189 
	C32.552662,41.077457 31.786133,38.725975 31.896343,37.132397 
	C32.030708,35.189545 32.328632,33.258011 32.555817,31.321579 
	C34.164040,32.421944 35.772259,33.522308 37.695618,35.046371 
	C38.013008,35.653793 38.015251,35.837521 38.017498,36.021252 
z"/>
<path fill="#F5F7FC" opacity="1.000000" stroke="none" 
	d="
M34.152615,59.226254 
	C34.039803,60.658276 34.039803,61.815948 34.039803,62.361530 
	C30.496542,60.698837 26.883905,59.003590 22.556944,56.973145 
	C23.696737,56.664921 25.127230,56.413071 26.448730,55.887283 
	C28.181969,55.197666 29.829247,54.291996 31.345634,53.560253 
	C33.219200,55.087711 35.280624,56.768326 37.342049,58.448940 
	C37.131115,58.774921 36.920185,59.100903 36.709251,59.426884 
	C35.894642,59.268559 35.080036,59.110229 34.152615,59.226254 
z"/>
<path fill="#0F2BBF" opacity="1.000000" stroke="none" 
	d="
M36.825500,87.214737 
	C37.736134,86.944672 38.470821,86.947487 39.880775,87.104271 
	C43.045761,88.844124 45.535477,90.430008 48.025192,92.015884 
	C47.675884,93.438004 47.326576,94.860130 46.946037,96.649918 
	C44.046234,95.606987 41.177670,94.196373 38.109764,92.498062 
	C39.415672,90.122040 32.885334,90.179031 36.825500,87.214737 
z"/>
<path fill="#3267D3" opacity="1.000000" stroke="none" 
	d="
M46.975533,80.977180 
	C45.204437,79.988213 43.433346,78.999237 41.304138,77.992447 
	C44.721581,74.998779 48.497131,72.022926 52.581188,68.897522 
	C52.922092,69.874222 52.954483,71.000473 52.723854,72.768562 
	C50.632401,75.932663 48.803967,78.454926 46.975533,80.977180 
z"/>
<path fill="#163DB0" opacity="1.000000" stroke="none" 
	d="
M73.868111,21.426025 
	C74.285988,21.692467 74.703865,21.958910 75.541397,22.548611 
	C76.996574,23.129992 78.032082,23.388113 79.067596,23.646233 
	C80.411079,23.826927 81.754555,24.007620 83.561325,24.525566 
	C84.662964,25.003910 85.301308,25.145002 86.256950,25.265156 
	C86.998795,25.252508 87.423355,25.260798 87.847908,25.269089 
	C87.847908,25.269089 87.992508,25.559771 87.964600,26.052107 
	C87.602280,27.088455 87.267876,27.632469 86.933472,28.176479 
	C84.356384,27.784555 81.789986,27.286587 79.199715,27.025480 
	C75.280510,26.630417 71.711937,25.761251 70.371330,21.293278 
	C71.815781,21.076162 72.841949,21.251095 73.868111,21.426025 
z"/>
<path fill="#78BBEA" opacity="1.000000" stroke="none" 
	d="
M54.874092,20.933392 
	C54.097004,21.234852 53.343807,21.540701 52.361565,21.499573 
	C52.768745,19.171192 53.404976,17.189791 54.041203,15.208388 
	C57.446556,14.572286 60.851910,13.936184 64.646057,13.718809 
	C65.020973,14.927715 65.007103,15.717893 64.596848,16.604923 
	C61.109837,18.126135 58.019207,19.550497 54.928581,20.974857 
	C54.928581,20.974857 54.897987,20.937782 54.874092,20.933392 
z"/>
<path fill="#8CC4ED" opacity="1.000000" stroke="none" 
	d="
M53.681736,15.187040 
	C53.404976,17.189791 52.768745,19.171192 52.051903,21.490992 
	C51.971291,21.829390 51.926273,21.910759 51.441906,21.938581 
	C48.206913,21.914171 45.456291,21.861938 42.705666,21.809708 
	C46.244534,19.595036 49.783401,17.380363 53.681736,15.187040 
z"/>
<path fill="#5EB9EB" opacity="1.000000" stroke="none" 
	d="
M64.993240,16.508068 
	C65.007103,15.717893 65.020973,14.927715 65.043015,13.848963 
	C67.773254,14.006682 70.495331,14.452977 73.608406,14.938747 
	C73.981804,16.813301 73.964203,18.648376 73.907364,20.954739 
	C72.841949,21.251095 71.815781,21.076162 70.399460,20.928076 
	C70.009293,20.954922 69.997795,20.995598 69.983994,20.747799 
	C69.850471,20.178164 69.637375,19.939835 69.212700,19.451477 
	C67.727409,18.247982 66.360321,17.378025 64.993240,16.508068 
z"/>
<path fill="#2C60BE" opacity="1.000000" stroke="none" 
	d="
M44.164551,65.879135 
	C44.443527,64.984222 45.201820,63.883213 44.920586,63.229191 
	C43.515751,59.962151 46.138504,59.266079 47.940208,59.221996 
	C49.225597,59.190540 50.555759,60.989143 51.865944,61.971107 
	C50.543030,63.289642 49.341694,64.779251 47.840122,65.846405 
	C47.197872,66.302834 45.930023,65.878975 44.490772,65.912926 
	C44.035110,65.970749 44.164551,65.879135 44.164551,65.879135 
z"/>
<path fill="#E8F1FA" opacity="1.000000" stroke="none" 
	d="
M38.451256,36.009377 
	C38.015251,35.837521 38.013008,35.653793 38.000450,35.193829 
	C38.232838,34.647686 38.475540,34.377785 38.974354,34.004711 
	C43.216843,33.021263 47.203220,32.140987 51.684517,31.512047 
	C52.514713,32.854042 52.849991,33.944698 53.185265,35.035358 
	C52.289497,36.788345 51.393726,38.541328 50.182941,40.086914 
	C50.471920,35.849232 49.124752,33.988480 44.858109,35.373947 
	C42.867077,35.581802 40.876045,35.789654 38.451256,36.009377 
z"/>
<path fill="#3790D6" opacity="1.000000" stroke="none" 
	d="
M44.635796,35.648293 
	C49.124752,33.988480 50.471920,35.849232 49.900932,40.339020 
	C49.933941,40.798531 49.956570,40.992092 49.743584,41.139648 
	C49.309460,41.432442 49.182602,41.636402 49.150024,41.899082 
	C49.150024,41.899082 48.894760,42.002247 48.758739,42.020134 
	C47.619801,39.724133 41.585289,40.873489 44.635796,35.648293 
z"/>
<path fill="#2663C3" opacity="1.000000" stroke="none" 
	d="
M87.111626,28.450958 
	C87.267876,27.632469 87.602280,27.088455 87.981110,26.213596 
	C89.754555,29.025208 91.483582,32.167667 93.238167,35.630051 
	C91.272408,33.541798 89.281090,31.133617 87.111626,28.450958 
z"/>
<path fill="#F5F7FC" opacity="1.000000" stroke="none" 
	d="
M34.980148,70.523468 
	C35.861629,72.096771 36.637844,73.967476 37.797646,76.762657 
	C32.474564,74.326553 32.474564,74.326553 34.980148,70.523468 
z"/>
<path fill="#F5F7FC" opacity="1.000000" stroke="none" 
	d="
M44.076553,65.903152 
	C43.349121,67.571312 42.580250,69.307076 41.811378,71.042839 
	C41.130241,70.591522 40.449104,70.140198 39.767967,69.688873 
	C40.989941,68.463852 42.211918,67.238831 43.799221,65.946472 
	C44.164551,65.879135 44.035110,65.970749 44.076553,65.903152 
z"/>
<path fill="#78BBEA" opacity="1.000000" stroke="none" 
	d="
M42.523003,21.836681 
	C45.456291,21.861938 48.206913,21.914171 51.397369,21.951937 
	C48.820694,22.598261 45.804192,23.259050 42.391212,23.580292 
	C41.996647,22.829859 41.998562,22.418970 42.000473,22.008083 
	C42.000473,22.008083 42.340343,21.863659 42.523003,21.836681 
z"/>
<path fill="#DFE9F7" opacity="1.000000" stroke="none" 
	d="
M40.991703,40.994389 
	C40.037193,41.999008 39.082684,43.003632 38.128174,44.008251 
	C37.720001,43.433510 37.311832,42.858772 36.903660,42.284031 
	C38.075039,41.786446 39.246414,41.288864 40.709095,40.895828 
	C41.000397,41.000378 40.991703,40.994389 40.991703,40.994389 
z"/>
<path fill="#F5F7FC" opacity="1.000000" stroke="none" 
	d="
M39.671009,58.909512 
	C39.566032,59.604080 39.285381,60.087772 39.004730,60.571465 
	C38.791985,60.377651 38.377892,60.037167 38.396381,60.011784 
	C38.731674,59.551468 39.119057,59.129097 39.671009,58.909512 
z"/>
<path fill="#F5F7FC" opacity="1.000000" stroke="none" 
	d="
M42.822945,60.919487 
	C42.286243,61.162979 41.824478,61.134697 41.362709,61.106415 
	C41.514851,60.708530 41.666996,60.310650 41.819138,59.912766 
	C42.178719,60.157749 42.538296,60.402733 42.822945,60.919487 
z"/>
<path fill="#40A1E1" opacity="1.000000" stroke="none" 
	d="
M87.842163,24.907497 
	C87.423355,25.260798 86.998795,25.252508 86.186256,24.995768 
	C85.531425,24.500679 85.264572,24.254044 84.997726,24.007408 
	C85.014343,23.736298 85.030960,23.465189 85.086594,22.787041 
	C86.029213,23.101967 86.932808,23.823936 87.842163,24.907497 
z"/>
<path fill="#8CC4ED" opacity="1.000000" stroke="none" 
	d="
M41.716064,22.085524 
	C41.998562,22.418970 41.996647,22.829859 41.983704,23.546974 
	C41.516159,23.874006 41.059643,23.894810 40.259613,23.899029 
	C40.421280,23.309284 40.926468,22.736124 41.716064,22.085524 
z"/>
<path fill="#F5F7FC" opacity="1.000000" stroke="none" 
	d="
M34.242725,66.010696 
	C34.409676,65.900284 34.578110,65.954422 34.746544,66.008553 
	C34.579098,66.064125 34.411652,66.119690 34.242725,66.010696 
z"/>
<path fill="#DFE9F7" opacity="1.000000" stroke="none" 
	d="
M41.004620,41.004707 
	C41.129135,40.568378 41.249428,40.127728 41.369724,39.687073 
	C41.386143,40.044434 41.402557,40.401791 41.205338,40.876770 
	C40.991703,40.994389 41.000397,41.000378 41.004620,41.004707 
z"/>
<path fill="#DFE9F7" opacity="1.000000" stroke="none" 
	d="
M35.557087,42.465572 
	C35.595741,42.528851 35.518433,42.402294 35.557087,42.465572 
z"/>
<path fill="#0E1EA0" opacity="1.000000" stroke="none" 
	d="
M53.546764,34.974937 
	C52.849991,33.944698 52.514713,32.854042 52.041931,31.453505 
	C52.191509,30.976662 52.478600,30.809700 52.896008,30.427490 
	C61.153461,28.143005 68.692123,28.552876 74.894516,35.644928 
	C77.109489,41.690987 79.273209,47.410912 81.101410,53.236137 
	C81.712448,55.183067 81.466110,57.399075 81.177223,59.410992 
	C79.872330,57.205761 79.001907,55.081627 78.088364,52.582825 
	C77.030724,49.472294 76.016190,46.736431 75.001656,44.000568 
	C71.036598,32.891495 65.670494,30.580027 53.546764,34.974937 
z"/>
<path fill="#2453BB" opacity="1.000000" stroke="none" 
	d="
M64.596848,16.604921 
	C66.360321,17.378025 67.727409,18.247982 68.844666,19.531805 
	C68.346870,19.974079 68.098885,20.002487 67.850906,20.030893 
	C63.810619,20.354034 59.770332,20.677177 55.329315,20.987587 
	C58.019207,19.550497 61.109837,18.126135 64.596848,16.604921 
z"/>
<path fill="#163DB0" opacity="1.000000" stroke="none" 
	d="
M68.050224,20.282730 
	C68.098885,20.002487 68.346870,19.974079 68.962875,19.865345 
	C69.637375,19.939835 69.850471,20.178164 70.004486,20.742460 
	C69.442375,20.834805 68.845955,20.684685 68.050224,20.282730 
z"/>
<path fill="#1659C6" opacity="1.000000" stroke="none" 
	d="
M55.099270,45.351662 
	C55.252754,43.946899 55.588818,42.824379 56.347565,41.306595 
	C61.130424,38.945698 64.186646,40.131783 65.777046,44.699455 
	C66.266167,46.104218 66.604088,47.561623 67.012871,49.366402 
	C68.013336,52.154984 69.012161,54.572083 69.588547,56.992432 
	C67.489151,57.004536 65.812180,57.013390 63.990501,56.730240 
	C63.231968,55.294586 62.618153,54.150936 62.004333,53.007286 
	C59.763508,50.549488 57.522678,48.091694 55.099270,45.351662 
z"/>
<path fill="#1B96F6" opacity="1.000000" stroke="none" 
	d="
M61.654369,53.007126 
	C62.618153,54.150936 63.231968,55.294586 63.974655,56.971153 
	C64.103531,57.504066 64.161415,57.983631 64.266609,58.327927 
	C65.251656,61.107052 66.131500,63.541889 67.004776,65.989822 
	C66.998192,66.002930 67.027283,65.998711 67.028870,66.377640 
	C67.062851,67.514236 67.095238,68.271919 67.190430,69.298218 
	C67.512741,70.050941 67.772240,70.535042 67.604385,71.016129 
	C66.029732,71.052185 64.882423,71.091270 63.735111,71.130363 
	C62.002548,65.913139 60.269981,60.695919 58.232025,55.288773 
	C57.947556,54.910763 57.968483,54.722675 57.996300,54.250389 
	C59.103596,53.646450 60.203999,53.326706 61.654369,53.007126 
z"/>
<path fill="#144EC2" opacity="1.000000" stroke="none" 
	d="
M64.161415,57.983631 
	C64.161415,57.983631 64.103531,57.504066 64.119370,57.263153 
	C65.812180,57.013390 67.489151,57.004536 69.935287,57.030365 
	C72.803879,58.710186 74.903297,60.355324 77.002724,62.000458 
	C77.230949,64.094528 77.459175,66.188606 77.841286,68.643242 
	C75.487907,68.830429 72.980652,68.657051 70.237549,68.740234 
	C69.834900,68.997528 69.668106,68.998260 69.001564,68.999741 
	C68.501816,69.000488 68.002747,69.000916 68.001450,68.663826 
	C67.675858,67.550728 67.351570,66.774719 67.027283,65.998711 
	C67.027283,65.998711 66.998192,66.002930 67.004097,65.577446 
	C66.060478,62.762516 65.110947,60.373074 64.161415,57.983631 
z"/>
<path fill="#1885F2" opacity="1.000000" stroke="none" 
	d="
M63.805588,71.487076 
	C64.882423,71.091270 66.029732,71.052185 67.727310,71.212440 
	C68.470879,71.665245 68.717041,71.847183 69.016083,71.957611 
	C69.669724,73.373390 70.323364,74.789169 70.888794,76.832108 
	C69.890869,77.961594 68.981163,78.463905 68.071449,78.966225 
	C66.672989,76.592079 65.274529,74.217941 63.805588,71.487076 
z"/>
<path fill="#1176F2" opacity="1.000000" stroke="none" 
	d="
M68.213562,79.278717 
	C68.981163,78.463905 69.890869,77.961594 70.954651,77.160950 
	C72.709206,78.669281 74.309692,80.475945 75.914993,82.615082 
	C73.398430,81.828773 70.877052,80.709991 68.213562,79.278717 
z"/>
<path fill="#1648BF" opacity="1.000000" stroke="none" 
	d="
M69.014923,71.588425 
	C68.717041,71.847183 68.470879,71.665245 68.154663,71.215469 
	C67.772240,70.535042 67.512741,70.050941 67.408646,69.289337 
	C67.564049,69.011833 68.002747,69.000916 68.002747,69.000916 
	C68.002747,69.000916 68.501816,69.000488 68.751373,69.000854 
	C69.005203,69.740562 69.009491,70.479897 69.014923,71.588425 
z"/>
<path fill="#1667CE" opacity="1.000000" stroke="none" 
	d="
M77.352493,61.997772 
	C74.903297,60.355324 72.803879,58.710186 70.357719,57.027115 
	C69.012161,54.572083 68.013336,52.154984 67.370132,49.407539 
	C71.194336,50.370628 74.662910,51.664059 78.131477,52.957489 
	C79.001907,55.081627 79.872330,57.205761 80.876938,59.655037 
	C81.006630,60.150402 81.002144,60.320621 80.996048,60.746292 
	C79.897057,61.332851 78.799660,61.663967 77.352493,61.997772 
z"/>
<path fill="#186FD1" opacity="1.000000" stroke="none" 
	d="
M78.088364,52.582825 
	C74.662910,51.664059 71.194336,50.370628 67.368500,49.036060 
	C66.604088,47.561623 66.266167,46.104218 65.777046,44.699455 
	C64.186646,40.131783 61.130424,38.945698 56.386898,40.957409 
	C57.898144,34.285038 62.908958,35.315987 68.617851,39.206982 
	C70.646179,40.589424 72.419205,42.346455 74.655212,43.966530 
	C76.016190,46.736431 77.030724,49.472294 78.088364,52.582825 
z"/>
<path fill="#2383DD" opacity="1.000000" stroke="none" 
	d="
M49.319973,41.832615 
	C49.182602,41.636402 49.309460,41.432442 49.704563,41.228931 
	C49.834435,41.424961 49.704899,41.623459 49.319973,41.832615 
z"/>
<path fill="#1050CC" opacity="1.000000" stroke="none" 
	d="
M46.979214,81.228340 
	C48.803967,78.454926 50.632401,75.932663 52.720695,73.190796 
	C55.839195,73.821716 58.697826,74.672256 61.777046,75.258987 
	C64.568573,77.874245 67.139511,80.753288 69.859108,83.958199 
	C65.312897,84.522987 60.618038,84.761917 55.128868,85.006256 
	C51.883503,84.001732 49.432457,82.991806 46.981411,81.981873 
	C46.981907,81.814407 46.982403,81.646950 46.979214,81.228340 
z"/>
<path fill="#0B36C3" opacity="1.000000" stroke="none" 
	d="
M46.684139,82.133591 
	C49.432457,82.991806 51.883503,84.001732 54.714989,85.044342 
	C52.915760,87.259575 50.736095,89.442131 48.290810,91.820290 
	C45.535477,90.430008 43.045761,88.844124 40.248215,87.099525 
	C42.089218,85.388969 44.238045,83.837135 46.684139,82.133591 
z"/>
<path fill="#40A1E1" opacity="1.000000" stroke="none" 
	d="
M78.957932,23.321058 
	C78.032082,23.388113 76.996574,23.129992 75.794868,22.570627 
	C76.701874,22.511551 77.775078,22.753717 78.957932,23.321058 
z"/>
<path fill="#2663C3" opacity="1.000000" stroke="none" 
	d="
M84.706360,24.063461 
	C85.264572,24.254044 85.531425,24.500679 85.868965,25.016705 
	C85.301308,25.145002 84.662964,25.003910 83.955780,24.626534 
	C84.062973,24.300003 84.238991,24.209759 84.706360,24.063461 
z"/>
<path fill="#1659C6" opacity="1.000000" stroke="none" 
	d="
M64.266609,58.327927 
	C65.110947,60.373074 66.060478,62.762516 67.010681,65.564346 
	C66.131500,63.541889 65.251656,61.107052 64.266609,58.327927 
z"/>
<path fill="#1659C6" opacity="1.000000" stroke="none" 
	d="
M68.001450,68.663826 
	C68.002747,69.000916 67.564049,69.011833 67.345840,69.020714 
	C67.095238,68.271919 67.062851,67.514236 67.028870,66.377640 
	C67.351570,66.774719 67.675858,67.550728 68.001450,68.663826 
z"/>
</svg>