<?xml version="1.0" encoding="UTF-8"?>
<svg version="1.1" xmlns="http://www.w3.org/2000/svg" width="117" height="111">
<path d="M0 0 C5.5675424 4.48192144 11.13848086 9.74452133 13.18359375 16.7578125 C13.47352891 20.53111151 13.56054841 24.28336113 13.64453125 28.06640625 C14.38631742 33.14602891 16.6054736 36.17969235 20.18359375 39.7578125 C20.18359375 42.1953125 20.18359375 42.1953125 19.18359375 44.7578125 C18.21421875 45.1909375 17.24484375 45.6240625 16.24609375 46.0703125 C12.84257225 47.51280613 12.84257225 47.51280613 11.87109375 51.2578125 C11.06134248 55.54473098 10.81779257 59.88880689 10.625 64.2421875 C10.07952418 67.35091694 9.56328325 68.65527559 7.18359375 70.7578125 C4.49830911 71.21563152 2.18707661 71.45253554 -0.50390625 71.5078125 C-1.55674805 71.55228516 -1.55674805 71.55228516 -2.63085938 71.59765625 C-4.35876049 71.66818283 -6.08758945 71.71528318 -7.81640625 71.7578125 C-8.64777982 76.0251426 -8.96372941 77.96841869 -6.81640625 81.7578125 C-6.81640625 83.0778125 -6.81640625 84.3978125 -6.81640625 85.7578125 C-12.96439317 88.41640144 -19.75469846 88.92397983 -26.2109375 87.0703125 C-31.16694941 84.98722518 -35.56839416 82.09284737 -39.96875 79.02734375 C-43.59558069 76.53533535 -46.05133945 76.65227263 -50.44140625 76.6953125 C-52.22417969 76.70884766 -52.22417969 76.70884766 -54.04296875 76.72265625 C-55.41582031 76.74005859 -55.41582031 76.74005859 -56.81640625 76.7578125 C-57.14640625 76.0978125 -57.47640625 75.4378125 -57.81640625 74.7578125 C-53.16849502 68.76445329 -48.09155258 64.94721119 -41.81640625 60.7578125 C-39.80731332 59.37509912 -37.80719191 57.97925648 -35.81640625 56.5703125 C-34.90890625 55.93738281 -34.00140625 55.30445313 -33.06640625 54.65234375 C-30.83841036 52.77634027 -29.86321823 51.44026819 -28.81640625 48.7578125 C-36.21994421 50.75236094 -36.21994421 50.75236094 -41.81640625 55.7578125 C-43.05152704 57.89090442 -43.05152704 57.89090442 -43.81640625 59.7578125 C-45.46640625 59.7578125 -47.11640625 59.7578125 -48.81640625 59.7578125 C-48.72359375 58.30375 -48.72359375 58.30375 -48.62890625 56.8203125 C-48.63813983 52.30509215 -49.5519757 47.69521785 -51.81640625 43.7578125 C-54.62719361 42.6122395 -56.70236827 42.7578125 -59.81640625 42.7578125 C-59.48640625 41.4378125 -59.15640625 40.1178125 -58.81640625 38.7578125 C-56.83640625 38.7578125 -54.85640625 38.7578125 -52.81640625 38.7578125 C-52.09383796 34.27647676 -52.09383796 34.27647676 -51.81640625 29.7578125 C-54.45640625 30.0878125 -57.09640625 30.4178125 -59.81640625 30.7578125 C-59.81640625 29.4378125 -59.81640625 28.1178125 -59.81640625 26.7578125 C-59.15640625 26.4278125 -58.49640625 26.0978125 -57.81640625 25.7578125 C-57.81640625 23.7778125 -57.81640625 21.7978125 -57.81640625 19.7578125 C-56.16640625 19.4278125 -54.51640625 19.0978125 -52.81640625 18.7578125 C-53.14640625 18.2215625 -53.47640625 17.6853125 -53.81640625 17.1328125 C-55.07594792 14.14140102 -55.16593583 11.97348466 -54.81640625 8.7578125 C-51.81640625 6.7578125 -51.81640625 6.7578125 -48.87890625 6.5703125 C-43.88767322 6.01926342 -40.02876402 3.09254571 -35.87890625 0.44921875 C-25.93612071 -5.04214112 -9.94550611 -6.03280266 0 0 Z M-54.81640625 25.7578125 C-53.81640625 27.7578125 -53.81640625 27.7578125 -53.81640625 27.7578125 Z M-48.81640625 43.7578125 C-48.15640625 46.7278125 -47.49640625 49.6978125 -46.81640625 52.7578125 C-43.09056674 54.18449616 -43.09056674 54.18449616 -41.11328125 52.76171875 C-40.6028125 52.28605469 -40.09234375 51.81039062 -39.56640625 51.3203125 C-38.20515625 50.051875 -38.20515625 50.051875 -36.81640625 48.7578125 C-37.14640625 47.7678125 -37.47640625 46.7778125 -37.81640625 45.7578125 C-41.57548266 44.13457496 -44.73726838 43.51786321 -48.81640625 43.7578125 Z " fill="#174EC1" transform="translate(80.81640625,15.2421875)"/>
<path d="M0 0 C5.5675424 4.48192144 11.13848086 9.74452133 13.18359375 16.7578125 C13.47352891 20.53111151 13.56054841 24.28336113 13.64453125 28.06640625 C14.38631742 33.14602891 16.6054736 36.17969235 20.18359375 39.7578125 C20.18359375 42.1953125 20.18359375 42.1953125 19.18359375 44.7578125 C18.21421875 45.1909375 17.24484375 45.6240625 16.24609375 46.0703125 C12.84257225 47.51280613 12.84257225 47.51280613 11.87109375 51.2578125 C10.92680657 56.37031684 10.5455444 61.57620323 10.18359375 66.7578125 C9.85359375 66.7578125 9.52359375 66.7578125 9.18359375 66.7578125 C7.85101972 57.34778972 7.85101972 57.34778972 9.18359375 52.7578125 C9.84359375 52.7578125 10.50359375 52.7578125 11.18359375 52.7578125 C11.18359375 50.7778125 11.18359375 48.7978125 11.18359375 46.7578125 C10.25546875 46.5309375 9.32734375 46.3040625 8.37109375 46.0703125 C4.51874176 44.48404992 3.9934453 43.42835413 2.18359375 39.7578125 C1.63217763 37.62939956 1.1557398 35.48049571 0.74609375 33.3203125 C-0.90768445 25.90336786 -2.9658521 21.78852034 -9.25390625 17.3828125 C-15.28992552 13.91819158 -21.038574 14.18414018 -27.81640625 14.7578125 C-28.04328125 15.9746875 -28.27015625 17.1915625 -28.50390625 18.4453125 C-29.60589889 22.76910305 -31.19025235 25.01805178 -34.81640625 27.7578125 C-38.56640625 29.0078125 -38.56640625 29.0078125 -41.81640625 29.7578125 C-43.23218102 30.94205576 -43.23218102 30.94205576 -42.87890625 34.3203125 C-42.85828125 35.4546875 -42.83765625 36.5890625 -42.81640625 37.7578125 C-39.80943146 38.48677608 -37.37246246 38.74223553 -34.25390625 38.6328125 C-30.81640625 38.7578125 -30.81640625 38.7578125 -28.37890625 39.7578125 C-25.88702353 42.94742238 -26.556378 45.79238165 -26.81640625 49.7578125 C-27.80640625 50.2528125 -27.80640625 50.2528125 -28.81640625 50.7578125 C-28.81640625 50.0978125 -28.81640625 49.4378125 -28.81640625 48.7578125 C-36.21994421 50.75236094 -36.21994421 50.75236094 -41.81640625 55.7578125 C-43.05152704 57.89090442 -43.05152704 57.89090442 -43.81640625 59.7578125 C-45.46640625 59.7578125 -47.11640625 59.7578125 -48.81640625 59.7578125 C-48.72359375 58.30375 -48.72359375 58.30375 -48.62890625 56.8203125 C-48.63813983 52.30509215 -49.5519757 47.69521785 -51.81640625 43.7578125 C-54.62719361 42.6122395 -56.70236827 42.7578125 -59.81640625 42.7578125 C-59.48640625 41.4378125 -59.15640625 40.1178125 -58.81640625 38.7578125 C-56.83640625 38.7578125 -54.85640625 38.7578125 -52.81640625 38.7578125 C-52.09383796 34.27647676 -52.09383796 34.27647676 -51.81640625 29.7578125 C-54.45640625 30.0878125 -57.09640625 30.4178125 -59.81640625 30.7578125 C-59.81640625 29.4378125 -59.81640625 28.1178125 -59.81640625 26.7578125 C-59.15640625 26.4278125 -58.49640625 26.0978125 -57.81640625 25.7578125 C-57.81640625 23.7778125 -57.81640625 21.7978125 -57.81640625 19.7578125 C-56.16640625 19.4278125 -54.51640625 19.0978125 -52.81640625 18.7578125 C-53.14640625 18.2215625 -53.47640625 17.6853125 -53.81640625 17.1328125 C-55.07594792 14.14140102 -55.16593583 11.97348466 -54.81640625 8.7578125 C-51.81640625 6.7578125 -51.81640625 6.7578125 -48.87890625 6.5703125 C-43.88767322 6.01926342 -40.02876402 3.09254571 -35.87890625 0.44921875 C-25.93612071 -5.04214112 -9.94550611 -6.03280266 0 0 Z M-54.81640625 25.7578125 C-53.81640625 27.7578125 -53.81640625 27.7578125 -53.81640625 27.7578125 Z M-48.81640625 43.7578125 C-48.15640625 46.7278125 -47.49640625 49.6978125 -46.81640625 52.7578125 C-43.09056674 54.18449616 -43.09056674 54.18449616 -41.11328125 52.76171875 C-40.6028125 52.28605469 -40.09234375 51.81039062 -39.56640625 51.3203125 C-38.20515625 50.051875 -38.20515625 50.051875 -36.81640625 48.7578125 C-37.14640625 47.7678125 -37.47640625 46.7778125 -37.81640625 45.7578125 C-41.57548266 44.13457496 -44.73726838 43.51786321 -48.81640625 43.7578125 Z " fill="#2E8FE0" transform="translate(80.81640625,15.2421875)"/>
<path d="M0 0 C8.75663323 -0.87705547 14.56006245 -0.1685102 21.75390625 5.09375 C27.70453693 10.14402439 28.78212209 15.44733949 30.19140625 22.87890625 C31.02720811 26.10502066 32.00490175 28.33664068 34 31 C37.0957107 31.89207179 37.0957107 31.89207179 40 32 C39.67 34.31 39.34 36.62 39 39 C33.90990771 40.76595039 30.38254905 41.37202231 25 40 C23 37 23 37 22.25 33.5625 C20.70493641 29.15906878 18.94438067 28.30088872 15 26 C12.60541252 22.40811878 12.25248127 19.47267629 11.5625 15.27734375 C11.16341425 12.81880229 11.16341425 12.81880229 9 11 C6.44539786 10.92727438 6.44539786 10.92727438 4 12 C2.62533375 14.47636012 2.62533375 14.47636012 2 17 C2.59683594 17.25136719 3.19367187 17.50273438 3.80859375 17.76171875 C8.76913635 20.5647348 11.4104248 25.90232687 12.91015625 31.23828125 C13.3837459 33.48200927 13.84614062 35.7281317 14.296875 37.9765625 C15.78426202 44.37232667 19.23792026 48.63476024 24 53 C22.375 53.75 22.375 53.75 20 54 C14.4710778 51.29435722 11.53365685 47.45641101 9 42 C8.09814153 39.18946693 7.34509794 36.38999117 6.67578125 33.515625 C5.7864899 30.2051994 5.10257157 27.84103134 2.3203125 25.71875 C-0.96732546 24.7003571 -3.71847774 25.13018965 -7.125 25.5 C-10.8828125 25.90625 -10.8828125 25.90625 -14 26 C-16 24 -16 24 -16.375 20.5625 C-16 17 -16 17 -14.375 15.1875 C-12 14 -12 14 -8.9375 13 C-5.91639948 11.97154025 -4.97165207 11.39956557 -3 9 C-2.00626561 6.7396956 -2.00626561 6.7396956 -1.3125 4.3125 C-1.06113281 3.50425781 -0.80976562 2.69601563 -0.55078125 1.86328125 C-0.36902344 1.24839844 -0.18726563 0.63351563 0 0 Z " fill="#1667CE" transform="translate(53,29)"/>
<path d="M0 0 C0.99 0.33 1.98 0.66 3 1 C2.24074219 1.45890625 1.48148438 1.9178125 0.69921875 2.390625 C-0.29464844 3.00421875 -1.28851563 3.6178125 -2.3125 4.25 C-3.29863281 4.85328125 -4.28476562 5.4565625 -5.30078125 6.078125 C-7.85784987 7.89878746 -9.39599577 9.32665961 -11 12 C-11.33425735 14.62625139 -11.33425735 14.62625139 -11 17 C-9.83697846 18.38528649 -9.83697846 18.38528649 -6.625 18.1875 C-2.90324609 18.30453853 -2.90324609 18.30453853 0 16 C0.99 16 1.98 16 3 16 C3.90487275 19.53722984 4.28571809 21.3714202 2.75 24.75 C-0.47529477 28.89680756 -4.11278129 29.64243925 -9 31 C-10.41577477 32.18424326 -10.41577477 32.18424326 -10.0625 35.5625 C-10.041875 36.696875 -10.02125 37.83125 -10 39 C-6.99302521 39.72896358 -4.55605621 39.98442303 -1.4375 39.875 C2 40 2 40 4.4375 41 C6.92938272 44.18960988 6.26002825 47.03456915 6 51 C5.01 51.495 5.01 51.495 4 52 C4 51.34 4 50.68 4 50 C-3.40353796 51.99454844 -3.40353796 51.99454844 -9 57 C-10.23512079 59.13309192 -10.23512079 59.13309192 -11 61 C-12.65 61 -14.3 61 -16 61 C-15.9071875 59.5459375 -15.9071875 59.5459375 -15.8125 58.0625 C-15.82173358 53.54727965 -16.73556945 48.93740535 -19 45 C-21.81078736 43.854427 -23.88596202 44 -27 44 C-26.67 42.68 -26.34 41.36 -26 40 C-24.02 40 -22.04 40 -20 40 C-19.27743171 35.51866426 -19.27743171 35.51866426 -19 31 C-22.96 31.495 -22.96 31.495 -27 32 C-27 30.68 -27 29.36 -27 28 C-26.34 27.67 -25.68 27.34 -25 27 C-25 25.02 -25 23.04 -25 21 C-23.35 20.67 -21.7 20.34 -20 20 C-20.33 19.46375 -20.66 18.9275 -21 18.375 C-22.25954167 15.38358852 -22.34952958 13.21567216 -22 10 C-19 8 -19 8 -16.0625 7.8125 C-10.93301398 7.27428841 -6.91499444 4.12308019 -2.671875 1.3984375 C-1.79015625 0.93695313 -0.9084375 0.47546875 0 0 Z M-22 27 C-21 29 -21 29 -21 29 Z M-16 45 C-15.34 47.97 -14.68 50.94 -14 54 C-10.27416049 55.42668366 -10.27416049 55.42668366 -8.296875 54.00390625 C-7.78640625 53.52824219 -7.2759375 53.05257812 -6.75 52.5625 C-5.38875 51.2940625 -5.38875 51.2940625 -4 50 C-4.33 49.01 -4.66 48.02 -5 47 C-8.75907641 45.37676246 -11.92086213 44.76005071 -16 45 Z " fill="#E3ECF7" transform="translate(48,14)"/>
<path d="M0 0 C1.546875 -0.00773437 1.546875 -0.00773437 3.125 -0.015625 C5.94597278 0.24500835 7.60145718 0.79703656 10 2.25 C9.95875 3.4875 9.9175 4.725 9.875 6 C9.86319583 9.35238309 10.32341481 11.31597591 12 14.25 C12 15.57 12 16.89 12 18.25 C5.79880128 20.93159945 -1.57134036 21.39288655 -8 19.25 C-9.6875 16.1875 -9.6875 16.1875 -11 13.25 C-12.32 13.58 -13.64 13.91 -15 14.25 C-15.875 12.1875 -15.875 12.1875 -16 9.25 C-11.95374207 2.72558409 -7.68392194 -0.03841961 0 0 Z " fill="#1B28AD" transform="translate(62,82.75)"/>
<path d="M0 0 C0.33 0.66 0.66 1.32 1 2 C1.721875 2.12375 2.44375 2.2475 3.1875 2.375 C9.64003154 3.8088959 13.27729587 7.93575065 16.69140625 13.30078125 C18.66420584 17.37004847 19.41227822 21.5638646 20.296875 25.9765625 C21.78426202 32.37232667 25.23792026 36.63476024 30 41 C28.375 41.75 28.375 41.75 26 42 C20.4710778 39.29435722 17.53365685 35.45641101 15 30 C14.09814153 27.18946693 13.34509794 24.38999117 12.67578125 21.515625 C11.7864899 18.2051994 11.10257157 15.84103134 8.3203125 13.71875 C5.03267454 12.7003571 2.28152226 13.13018965 -1.125 13.5 C-4.8828125 13.90625 -4.8828125 13.90625 -8 14 C-10 12 -10 12 -10.375 8.5625 C-10 5 -10 5 -8.375 3.1875 C-5.64737078 1.82368539 -2.92245689 0.86345317 0 0 Z " fill="#1A86F0" transform="translate(47,41)"/>
<path d="M0 0 C1 3 1 3 0.1796875 5.234375 C-2.54282576 10.48377182 -5.41766228 15.29178471 -9 20 C-8.360625 20.103125 -7.72125 20.20625 -7.0625 20.3125 C-6.381875 20.539375 -5.70125 20.76625 -5 21 C-4.67 21.99 -4.34 22.98 -4 24 C-4.66 24.99 -5.32 25.98 -6 27 C-6 28.32 -6 29.64 -6 31 C-5.01 31.33 -4.02 31.66 -3 32 C-2.67 31.34 -2.34 30.68 -2 30 C-1.01 31.98 -0.02 33.96 1 36 C-4.06884062 34.70029728 -7.8089895 32.28762465 -12.046875 29.33984375 C-15.73720396 26.80827808 -18.15422154 26.89366884 -22.625 26.9375 C-24.40777344 26.95103516 -24.40777344 26.95103516 -26.2265625 26.96484375 C-27.59941406 26.98224609 -27.59941406 26.98224609 -29 27 C-29.33 26.34 -29.66 25.68 -30 25 C-25.349414 19.00319173 -20.27013497 15.20099043 -14 11 C-12.01364416 9.59343127 -10.03440269 8.17676028 -8.0625 6.75 C-7.16660156 6.10546875 -6.27070312 5.4609375 -5.34765625 4.796875 C-3.38864782 3.29746755 -1.68090227 1.79740045 0 0 Z " fill="#1434C2" transform="translate(53,65)"/>
<path d="M0 0 C2.24482516 0.49885004 4.1621284 1.07656064 6.25 2.0625 C9.97143987 3.33117268 13.07743488 3.13296831 17 3 C17.33 4.32 17.66 5.64 18 7 C15.9375 7.6875 15.9375 7.6875 13.875 8.375 C13.05773437 8.65085937 12.24046875 8.92671875 11.3984375 9.2109375 C9.44674791 9.8530243 7.47554396 10.43555887 5.5 11 C4.675 11.33 3.85 11.66 3 12 C1.95023036 15.14930893 1.89868405 17.38814456 1.9375 20.6875 C1.94652344 21.68136719 1.95554687 22.67523438 1.96484375 23.69921875 C1.97644531 24.45847656 1.98804688 25.21773437 2 26 C3.89559964 26.16930395 5.79149231 26.33532864 7.6875 26.5 C9.27111328 26.63921875 9.27111328 26.63921875 10.88671875 26.78125 C13.60636025 26.9723415 16.27539856 27.04043935 19 27 C20.125 31.75 20.125 31.75 19 34 C17.906875 34.28875 16.81375 34.5775 15.6875 34.875 C11.04360421 36.29178177 9.07998442 38.05602804 6.75 42.25 C6.5025 42.8275 6.255 43.405 6 44 C4.35 44 2.7 44 1 44 C1.0928125 42.5459375 1.0928125 42.5459375 1.1875 41.0625 C1.17826642 36.54727965 0.26443055 31.93740535 -2 28 C-4.81078736 26.854427 -6.88596202 27 -10 27 C-9.67 25.68 -9.34 24.36 -9 23 C-7.02 23 -5.04 23 -3 23 C-2.27743171 18.51866426 -2.27743171 18.51866426 -2 14 C-4.64 14.33 -7.28 14.66 -10 15 C-10 13.68 -10 12.36 -10 11 C-9.34 10.67 -8.68 10.34 -8 10 C-7.34444881 7.47266765 -7.34444881 7.47266765 -7 5 C-5.35 5 -3.7 5 -2 5 C-2.33 6.32 -2.66 7.64 -3 9 C-3.66 9 -4.32 9 -5 9 C-5 9.99 -5 10.98 -5 12 C-4.113125 11.690625 -3.22625 11.38125 -2.3125 11.0625 C0.47835699 10.16731946 3.13580757 9.57283849 6 9 C8.00744615 8.35610218 10.00945124 7.69437747 12 7 C12 6.34 12 5.68 12 5 C8.37 5 4.74 5 1 5 C0.67 3.35 0.34 1.7 0 0 Z M1 28 C1.66 30.97 2.32 33.94 3 37 C6.72583951 38.42668366 6.72583951 38.42668366 8.703125 37.00390625 C9.21359375 36.52824219 9.7240625 36.05257812 10.25 35.5625 C11.61125 34.2940625 11.61125 34.2940625 13 33 C12.67 32.01 12.34 31.02 12 30 C8.24092359 28.37676246 5.07913787 27.76005071 1 28 Z " fill="#A0AFDC" transform="translate(31,31)"/>
<path d="M0 0 C3.88638209 2.59092139 4.5151774 5.57571412 5.9375 9.8125 C8.26400374 16.74184403 10.74458257 21.75525246 17 26 C15.98679687 25.95359375 14.97359375 25.9071875 13.9296875 25.859375 C12.57815468 25.82183242 11.22658972 25.78543494 9.875 25.75 C9.20984375 25.71648437 8.5446875 25.68296875 7.859375 25.6484375 C2.68995265 25.54707628 0.06199871 26.93843421 -4 30 C-4.66 30 -5.32 30 -6 30 C-6 29.34 -6 28.68 -6 28 C-7.32 27.67 -8.64 27.34 -10 27 C-9.00414666 24.09542774 -8.01591856 22.01951308 -6.0625 19.625 C-1.24142427 13.48908543 -0.44299891 7.59208469 0 0 Z " fill="#1251CB" transform="translate(54,58)"/>
<path d="M0 0 C3.00002322 2.27648821 5.49697346 4.68818707 7.9921875 7.51171875 C7.6621875 8.17171875 7.3321875 8.83171875 6.9921875 9.51171875 C6.2084375 9.22296875 5.4246875 8.93421875 4.6171875 8.63671875 C1.65979949 7.71890868 -1.03474644 7.14491516 -4.0703125 6.63671875 C-8.44701407 5.82670234 -10.55069784 4.31478469 -14.0078125 1.51171875 C-20.65747868 0.64972499 -25.54192844 2.86779604 -31.0078125 6.51171875 C-33.48828125 6.70703125 -33.48828125 6.70703125 -36.1953125 6.63671875 C-37.09636719 6.61867188 -37.99742188 6.600625 -38.92578125 6.58203125 C-39.61285156 6.55882812 -40.29992188 6.535625 -41.0078125 6.51171875 C-38.25610499 3.55618105 -35.58810951 1.3960856 -32.0078125 -0.48828125 C-31.3478125 -0.48828125 -30.6878125 -0.48828125 -30.0078125 -0.48828125 C-30.0078125 -1.14828125 -30.0078125 -1.80828125 -30.0078125 -2.48828125 C-20.56796778 -5.09101513 -8.50453434 -5.13509081 0 0 Z " fill="#64B6E9" transform="translate(81.0078125,15.48828125)"/>
<path d="M0 0 C-2.58195874 3.87293811 -4.60923984 3.88235196 -9 5 C-10.41577477 6.18424326 -10.41577477 6.18424326 -10.0625 9.5625 C-10.041875 10.696875 -10.02125 11.83125 -10 13 C-6.99302521 13.72896358 -4.55605621 13.98442303 -1.4375 13.875 C2 14 2 14 4.4375 15 C6.92938272 18.18960988 6.26002825 21.03456915 6 25 C5.34 25.33 4.68 25.66 4 26 C4 25.34 4 24.68 4 24 C3.34 23.67 2.68 23.34 2 23 C2 21.35 2 19.7 2 18 C1.443125 18.09539063 0.88625 18.19078125 0.3125 18.2890625 C-5.37438159 19.11519733 -9.54040179 18.85236368 -15 17 C-16.73056469 13.53887061 -16.47308754 9.78470029 -16 6 C-12.52361916 0.71590112 -6.07607773 -2.02535924 0 0 Z " fill="#F1F6FC" transform="translate(48,40)"/>
<path d="M0 0 C0.33 0.66 0.66 1.32 1 2 C1.721875 2.12375 2.44375 2.2475 3.1875 2.375 C7.57996506 3.35110335 10.67277399 5.71701485 13.875 8.8125 C15.46805441 11.9101058 15.19750798 14.57652826 15 18 C12.66666667 15.66666667 10.33333333 13.33333333 8 11 C4.73633319 10.9376653 1.52005811 11.13454629 -1.73828125 11.3203125 C-5.66140853 10.93504731 -7.19493038 9.68402534 -10 7 C-9.5 5.1875 -9.5 5.1875 -8 3 C-5.4136076 1.73847391 -2.74799171 0.84356955 0 0 Z " fill="#28A8F5" transform="translate(47,41)"/>
<path d="M0 0 C1.22278174 3.66834521 0.70900132 4.36231038 -0.9375 7.75 C-3.61575504 12.83793854 -6.94691206 17.10978682 -12 20 C-15.87103547 20.36419454 -18.47741299 19.61032549 -22 18 C-18.27438892 14.04773577 -14.34136814 10.94974186 -9.875 7.875 C-4.61754613 4.32168386 -4.61754613 4.32168386 0 0 Z " fill="#3967D2" transform="translate(53,65)"/>
<path d="M0 0 C11.55936675 -0.61741425 11.55936675 -0.61741425 16.5 1.5 C22.43131834 7.43131834 25.15284782 14.51122717 27.6875 22.375 C28.2694947 24.15536892 28.85649905 25.93411036 29.44921875 27.7109375 C29.82566528 28.87568604 29.82566528 28.87568604 30.2097168 30.06396484 C31.58441085 33.43168924 33.84626729 34.52825807 37 36 C33.75 35.875 33.75 35.875 30 35 C26.65152655 30.8285434 25.07863913 26.71377146 23.5625 21.625 C21.39396025 14.7388761 19.14355263 8.88158991 13.75 3.9375 C8.79370723 2.24785474 3.8732432 3.3755856 -1 5 C-0.67 3.35 -0.34 1.7 0 0 Z " fill="#0C189C" transform="translate(53,29)"/>
<path d="M0 0 C4.74155706 2.46560967 7.52863297 5.25497529 10 10 C9.75 12.375 9.75 12.375 9 14 C8.29875 13.071875 7.5975 12.14375 6.875 11.1875 C4.24482823 8.07710024 1.95717025 6.26629448 -2 5 C-5.803469 5.69243933 -5.803469 5.69243933 -9 7 C-9.33 9.31 -9.66 11.62 -10 14 C-11.98 13.34 -13.96 12.68 -16 12 C-15.34938905 10.32700041 -14.67966676 8.66140763 -14 7 C-13.7525 6.29875 -13.505 5.5975 -13.25 4.875 C-10.23591629 0.35387443 -5.11078914 -0.74532342 0 0 Z " fill="#1A7ED9" transform="translate(64,31)"/>
<path d="M0 0 C1.546875 -0.00773437 1.546875 -0.00773437 3.125 -0.015625 C5.94597278 0.24500835 7.60145718 0.79703656 10 2.25 C10 2.91 10 3.57 10 4.25 C4.72 4.25 -0.56 4.25 -6 4.25 C-6.66 5.57 -7.32 6.89 -8 8.25 C-9.31542376 10.26182457 -10.6459068 12.26399663 -12 14.25 C-13.32 13.92 -14.64 13.59 -16 13.25 C-15.56562648 8.32710011 -13.356381 5.76249175 -10 2.25 C-6.67602149 0.09919038 -3.91579273 -0.01957896 0 0 Z " fill="#0A0796" transform="translate(62,82.75)"/>
<path d="M0 0 C6.25259516 0.48096886 6.25259516 0.48096886 9.25 2.5625 C12.05250554 6.46598986 13.35263497 10.75480335 14.67578125 15.34375 C16.5526505 21.63493186 19.03512471 24.9245873 24.5 28.75 C27.03168478 30.01584239 29.20847953 30.60121136 32 31 C32 31.33 32 31.66 32 32 C29.69 32 27.38 32 25 32 C24.67 32.66 24.34 33.32 24 34 C23.938125 33.38125 23.87625 32.7625 23.8125 32.125 C23.544375 31.42375 23.27625 30.7225 23 30 C21.3364521 29.32558869 19.66933058 28.6599679 18 28 C14.20518719 24.06408847 12.85917962 20.13088839 11.25 15.0625 C8.92035903 8.21946912 6.47233373 4.56471173 0 1 C0 0.67 0 0.34 0 0 Z " fill="#142BAB" transform="translate(48,53)"/>
<path d="M0 0 C2.9375 1.875 2.9375 1.875 5 4 C5 4.66 5 5.32 5 6 C6.27875 6.061875 7.5575 6.12375 8.875 6.1875 C14.46677612 6.83543596 19.52540322 8.50698473 24 12 C25.125 15.8125 25.125 15.8125 25 19 C24.4225 18.236875 23.845 17.47375 23.25 16.6875 C19.75335507 12.43925523 19.75335507 12.43925523 14.73828125 10.734375 C13.93777344 10.73953125 13.13726562 10.7446875 12.3125 10.75 C6.76456715 10.39865816 4.14288818 8.04860973 0.01953125 4.5390625 C-2.0031563 2.77561294 -2.0031563 2.77561294 -5.0625 2.3125 C-8.46822168 3.1095838 -11.16034407 4.46079327 -14.16796875 6.22265625 C-16 7 -16 7 -19 6 C-12.8618222 1.61558729 -7.66681434 -0.83637975 0 0 Z " fill="#143BAE" transform="translate(67,16)"/>
<path d="M0 0 C4.29851323 2.14925661 7.0830259 4.59344915 9 9 C9.85346083 12.27778434 10.56036893 15.55126226 11.19140625 18.87890625 C12.02720811 22.10502066 13.00490175 24.33664068 15 27 C18.0957107 27.89207179 18.0957107 27.89207179 21 28 C20.01 29.32 19.02 30.64 18 32 C14.01155239 30.70644942 12.27638951 29.49643545 10 26 C9.06445312 23.7734375 9.06445312 23.7734375 8.28125 21.375 C7.98863281 20.50359375 7.69601563 19.6321875 7.39453125 18.734375 C6.79817708 16.91145833 6.20182292 15.08854167 5.60546875 13.265625 C5.31285156 12.39421875 5.02023438 11.5228125 4.71875 10.625 C4.46029297 9.83351563 4.20183594 9.04203125 3.93554688 8.2265625 C2.92677118 5.82571846 1.56671985 4.06552126 0 2 C0 1.34 0 0.68 0 0 Z " fill="#1453C1" transform="translate(72,33)"/>
<path d="M0 0 C2.24482516 0.49885004 4.1621284 1.07656064 6.25 2.0625 C9.97143987 3.33117268 13.07743488 3.13296831 17 3 C17.33 4.32 17.66 5.64 18 7 C15.9375 7.6875 15.9375 7.6875 13.875 8.375 C12.64910156 8.78878906 12.64910156 8.78878906 11.3984375 9.2109375 C9.44674791 9.8530243 7.47554396 10.43555887 5.5 11 C4.675 11.33 3.85 11.66 3 12 C2.67 12.99 2.34 13.98 2 15 C1.01 15 0.02 15 -1 15 C-0.67 13.35 -0.34 11.7 0 10 C1.299375 9.814375 1.299375 9.814375 2.625 9.625 C5.89513853 9.01941879 8.87256899 8.11693965 12 7 C12 6.34 12 5.68 12 5 C8.37 5 4.74 5 1 5 C0.67 3.35 0.34 1.7 0 0 Z " fill="#659ED9" transform="translate(31,31)"/>
<path d="M0 0 C0.81533203 -0.01224609 1.63066406 -0.02449219 2.47070312 -0.03710938 C3.64729492 -0.04000977 3.64729492 -0.04000977 4.84765625 -0.04296875 C5.56058838 -0.04707764 6.27352051 -0.05118652 7.00805664 -0.05541992 C8.9375 0.1875 8.9375 0.1875 11.9375 2.1875 C10.79152344 2.16429687 9.64554688 2.14109375 8.46484375 2.1171875 C6.9349024 2.09841521 5.40495394 2.08021659 3.875 2.0625 C3.12283203 2.04574219 2.37066406 2.02898438 1.59570312 2.01171875 C-3.33943781 1.96899026 -7.44225034 2.37750529 -12.0625 4.1875 C-13.59396378 7.19344421 -13.59396378 7.19344421 -14.0625 10.1875 C-17.3625 10.1875 -20.6625 10.1875 -24.0625 10.1875 C-21.31079249 7.2319623 -18.64279701 5.07186685 -15.0625 3.1875 C-14.4025 3.1875 -13.7425 3.1875 -13.0625 3.1875 C-13.0625 2.5275 -13.0625 1.8675 -13.0625 1.1875 C-8.68452273 -0.04690366 -4.52005324 0.00359019 0 0 Z " fill="#A2D1F1" transform="translate(64.0625,11.8125)"/>
<path d="M0 0 C1.65 0 3.3 0 5 0 C4.67 1.32 4.34 2.64 4 4 C3.34 4 2.68 4 2 4 C2 4.99 2 5.98 2 7 C3.32 7 4.64 7 6 7 C6 7.99 6 8.98 6 10 C6.66 10 7.32 10 8 10 C8 12.64 8 15.28 8 18 C7.01 18 6.02 18 5 18 C5 15.03 5 12.06 5 9 C2.36 9.33 -0.28 9.66 -3 10 C-3 8.68 -3 7.36 -3 6 C-2.34 5.67 -1.68 5.34 -1 5 C-0.34444881 2.47266765 -0.34444881 2.47266765 0 0 Z " fill="#8EACDD" transform="translate(24,36)"/>
<path d="M0 0 C0.99 0 1.98 0 3 0 C3.66 0.99 4.32 1.98 5 3 C7.96264431 3.17420711 7.96264431 3.17420711 11.3125 2.875 C18.65850212 2.69602763 18.65850212 2.69602763 21.375 5.25 C23 8 23 8 22.8125 10.3125 C22.544375 10.869375 22.27625 11.42625 22 12 C21.7525 11.38125 21.505 10.7625 21.25 10.125 C19.70090625 7.49154062 18.87167606 7.01409023 16 6 C12.55079006 6.05025788 12.55079006 6.05025788 8.875 6.5 C5.1171875 6.90625 5.1171875 6.90625 2 7 C0 5 0 5 -0.125 2.375 C-0.08375 1.59125 -0.0425 0.8075 0 0 Z " fill="#2D81DA" transform="translate(37,48)"/>
<path d="M0 0 C0.66 0.33 1.32 0.66 2 1 C1.67 1.33 1.34 1.66 1 2 C3.97 3.65 6.94 5.3 10 7 C10 7.66 10 8.32 10 9 C5.05 9 0.1 9 -5 9 C-5.33 8.34 -5.66 7.68 -6 7 C-4.02 4.69 -2.04 2.38 0 0 Z " fill="#5663D0" transform="translate(29,83)"/>
<path d="M0 0 C0.99 0.33 1.98 0.66 3 1 C3.95141602 2.91772461 3.95141602 2.91772461 4.75390625 5.40234375 C5.05103516 6.29244141 5.34816406 7.18253906 5.65429688 8.09960938 C6.10385742 9.50436523 6.10385742 9.50436523 6.5625 10.9375 C7.16277195 12.78164759 7.76801564 14.62418642 8.37890625 16.46484375 C8.6426001 17.285896 8.90629395 18.10694824 9.17797852 18.95288086 C10.55966538 22.39376127 12.78043156 23.49753473 16 25 C12.75 24.875 12.75 24.875 9 24 C5.60235078 19.75937342 3.85471829 15.41429306 2.25 10.3125 C2.02957031 9.64927734 1.80914062 8.98605469 1.58203125 8.30273438 C0.64652802 5.41778186 0 3.05189631 0 0 Z " fill="#0D1A9E" transform="translate(74,40)"/>
<path d="M0 0 C2.0625 -0.4375 2.0625 -0.4375 5 0 C7.57260172 2.12080183 9.79254499 4.50627561 12 7 C11.67 7.66 11.34 8.32 11 9 C10.13375 8.690625 9.2675 8.38125 8.375 8.0625 C5.23849262 7.07508101 2.24932587 6.46418941 -1 6 C-0.67 4.02 -0.34 2.04 0 0 Z " fill="#73C5F0" transform="translate(77,16)"/>
<path d="M0 0 C0.33 0.99 0.66 1.98 1 3 C2.32 3 3.64 3 5 3 C4.67 4.65 4.34 6.3 4 8 C4.99 8.66 5.98 9.32 7 10 C3.625 10.125 3.625 10.125 0 10 C-2 8 -2 8 -2.25 5.5625 C-2 3 -2 3 0 0 Z " fill="#87B0E8" transform="translate(38,23)"/>
<path d="M0 0 C2.9375 2.5 2.9375 2.5 5 5 C0.25 4.125 0.25 4.125 -2 3 C-7.01447396 2.40303881 -9.95781679 3.75635421 -14.16796875 6.22265625 C-16 7 -16 7 -19 6 C-12.92580264 1.6612876 -7.60525199 -0.96794116 0 0 Z " fill="#2B5BBF" transform="translate(67,16)"/>
<path d="M0 0 C3.3 0.33 6.6 0.66 10 1 C10 1.66 10 2.32 10 3 C8.71086513 3.67154933 7.41859796 4.33708859 6.125 5 C5.40570313 5.37125 4.68640625 5.7425 3.9453125 6.125 C2 7 2 7 0 7 C0 4.69 0 2.38 0 0 Z " fill="#F4F8FC" transform="translate(33,35)"/>
<path d="M0 0 C1.65 0 3.3 0 5 0 C6.125 4.75 6.125 4.75 5 7 C3.02 7 1.04 7 -1 7 C-0.67 4.69 -0.34 2.38 0 0 Z " fill="#3567C1" transform="translate(45,58)"/>
<path d="M0 0 C5.875 1.875 5.875 1.875 7 3 C7.04063832 4.66617115 7.042721 6.33388095 7 8 C3.17902761 7.46930939 0.93828597 6.50298434 -2 4 C-1.34 2.68 -0.68 1.36 0 0 Z " fill="#81C1F3" transform="translate(39,44)"/>
<path d="M0 0 C0.94693195 3.7016431 1.30443767 5.39112465 -0.4375 8.875 C-0.953125 9.57625 -1.46875 10.2775 -2 11 C-3.32 10.34 -4.64 9.68 -6 9 C-5.01 8.67 -4.02 8.34 -3 8 C-3 7.01 -3 6.02 -3 5 C-3.99 4.67 -4.98 4.34 -6 4 C-5.67 3.01 -5.34 2.02 -5 1 C-3 0 -3 0 0 0 Z " fill="#D2E4F6" transform="translate(51,30)"/>
<path d="M0 0 C-1.96099207 1.96099207 -3.41110058 2.80989009 -5.875 4 C-6.55304687 4.33 -7.23109375 4.66 -7.9296875 5 C-8.61289062 5.33 -9.29609375 5.66 -10 6 C-11.33425541 6.66481931 -12.66786355 7.33094492 -14 8 C-13.4375 5.125 -13.4375 5.125 -12 2 C-7.95649377 0.32156345 -4.35953547 -0.26421427 0 0 Z " fill="#7DC1ED" transform="translate(64,13)"/>
<path d="M0 0 C3.3 0 6.6 0 10 0 C10 1.32 10 2.64 10 4 C6.37 4 2.74 4 -1 4 C-0.67 2.68 -0.34 1.36 0 0 Z " fill="#6D89CE" transform="translate(22,54)"/>
<path d="M0 0 C7.17264669 -0.60785141 7.17264669 -0.60785141 11.0625 2.25 C13 5 13 5 12.8125 7.3125 C12.544375 7.869375 12.27625 8.42625 12 9 C11.77570312 8.38640625 11.55140625 7.7728125 11.3203125 7.140625 C9.57487194 4.31073913 7.9690077 3.86066943 4.875 2.75 C3.96492188 2.41484375 3.05484375 2.0796875 2.1171875 1.734375 C1.41851562 1.49203125 0.71984375 1.2496875 0 1 C0 0.67 0 0.34 0 0 Z " fill="#1770D6" transform="translate(47,51)"/>
<path d="M0 0 C0.33 0.66 0.66 1.32 1 2 C2.99319761 2.26140296 4.98774473 2.51730424 6.98828125 2.71484375 C9.29528168 3.04185546 11.02738757 3.76711723 13 5 C12.34 5.66 11.68 6.32 11 7 C7.37 6.01 3.74 5.02 0 4 C0 2.68 0 1.36 0 0 Z " fill="#A9BDE4" transform="translate(32,55)"/>
<path d="M0 0 C0.33 0 0.66 0 1 0 C1.19335938 0.61488281 1.38671875 1.22976562 1.5859375 1.86328125 C1.84632812 2.67152344 2.10671875 3.47976562 2.375 4.3125 C2.63023438 5.11300781 2.88546875 5.91351563 3.1484375 6.73828125 C3.98831811 9.22724528 3.98831811 9.22724528 6 12 C5.01 12.33 4.02 12.66 3 13 C-1.06153846 6.84615385 -1.06153846 6.84615385 -0.75 2.5625 C-0.5025 1.716875 -0.255 0.87125 0 0 Z " fill="#0E32B3" transform="translate(61,66)"/>
<path d="M0 0 C2 3 2 3 3.3125 6.0625 C4.74797471 9.17910296 4.74797471 9.17910296 7.6875 10.375 C8.450625 10.58125 9.21375 10.7875 10 11 C10 11.33 10 11.66 10 12 C6.75 11.875 6.75 11.875 3 11 C0.5 8.25 0.5 8.25 -1 5 C-0.75 2.125 -0.75 2.125 0 0 Z " fill="#0E2EAB" transform="translate(80,53)"/>
<path d="M0 0 C5.60461531 0.42089996 10.72086547 0.91613111 16 3 C16 3.99 16 4.98 16 6 C15.030625 5.54625 14.06125 5.0925 13.0625 4.625 C8.83420322 2.79678151 4.50890539 1.8690634 0 1 C0 0.67 0 0.34 0 0 Z " fill="#337FD0" transform="translate(72,21)"/>
<path d="M0 0 C0.66 0 1.32 0 2 0 C0.69425831 2.91280837 -0.7074208 4.80294493 -3 7 C-3.99 8.485 -3.99 8.485 -5 10 C-5 9.01 -5 8.02 -5 7 C-5.66 7 -6.32 7 -7 7 C-7 6.34 -7 5.68 -7 5 C-5.35666496 3.96210419 -3.68756133 2.96432076 -2 2 C-1.34 1.34 -0.68 0.68 0 0 Z " fill="#ACB7E2" transform="translate(42,64)"/>
<path d="M0 0 C2.9375 1.0625 2.9375 1.0625 6 3 C6.875 6.6875 6.875 6.6875 7 10 C6.4225 9.2575 5.845 8.515 5.25 7.75 C3.27746474 5.33912357 1.23955718 3.15957299 -1 1 C-0.67 0.67 -0.34 0.34 0 0 Z " fill="#2055BC" transform="translate(85,25)"/>
<path d="M0 0 C2.2477975 2.05233685 3.0022242 3.00667261 4 6 C0.22454612 4.90931332 -2.47043472 4.0916909 -5 1 C-2.525 1.495 -2.525 1.495 0 2 C0 1.34 0 0.68 0 0 Z " fill="#5A64CE" transform="translate(50,95)"/>
<path d="M0 0 C2.475 0.495 2.475 0.495 5 1 C4.67 2.32 4.34 3.64 4 5 C2.68 4.67 1.36 4.34 0 4 C0 2.68 0 1.36 0 0 Z " fill="#2A88D3" transform="translate(44,34)"/>
<path d="M0 0 C0.99 0.33 1.98 0.66 3 1 C3 2.32 3 3.64 3 5 C1.35 5 -0.3 5 -2 5 C-2 3.68 -2 2.36 -2 1 C-1.34 0.67 -0.68 0.34 0 0 Z " fill="#4D58B6" transform="translate(34,70)"/>
<path d="M0 0 C0.99 0.33 1.98 0.66 3 1 C3 3.64 3 6.28 3 9 C2.01 9 1.02 9 0 9 C0 6.03 0 3.06 0 0 Z " fill="#B0C4E7" transform="translate(29,45)"/>
<path d="M0 0 C-1.28813342 0.83878455 -2.58063256 1.67086783 -3.875 2.5 C-4.59429687 2.9640625 -5.31359375 3.428125 -6.0546875 3.90625 C-8 5 -8 5 -10 5 C-9 2 -9 2 -6.125 0.25 C-3 -1 -3 -1 0 0 Z " fill="#F0F7FC" transform="translate(51,15)"/>
<path d="M0 0 C0.66 0.33 1.32 0.66 2 1 C0.68 2.65 -0.64 4.3 -2 6 C-3.32 5.67 -4.64 5.34 -6 5 C-4.02 3.35 -2.04 1.7 0 0 Z " fill="#7B91DE" transform="translate(37,77)"/>
<path d="M0 0 C1.32 0.66 2.64 1.32 4 2 C3.01 3.485 3.01 3.485 2 5 C1.01 5 0.02 5 -1 5 C-0.67 3.35 -0.34 1.7 0 0 Z " fill="#3173C7" transform="translate(31,41)"/>
</svg>
